# xmcd
#
# Track frame offsets:
#	150
#	15457
#	27534
#	47898
#	71667
#	86896
#	101083
#	122683
#	135145
#	151681
#	167260
#	180687
#	196374
#	215047
#	232472
#	242395
#	260096
#	283470
#
# Disc length: 4007 seconds
#
# Revision: 0
# Processed by: cddbd v1.5.2PL0 Copyright (c) Steve Scherf et al.
# Submitted via: EasyCDDAExtractor 10.0.2.1
#
DISCID=060fa512
DTITLE=Various Artist - Country Messe Berlin 2008 - CD 2
DYEAR=2008
DGENRE=Country
TTITLE0=Bluegrass Breakdown - Fascination Expired
TTITLE1=Marty Wolfe - Old Black Record
TTITLE2=Michael Lonstar - What´s This Country Thing
TTITLE3=Lucky Sale - Fooly Truly Blue
TTITLE4=Hermann Lammers Meyer - The Radio Song
TTITLE5=Katie Grant - Mother And Child
TTITLE6=Scott Shipley - Hillbilly
TTITLE7=Tex Robinson - Love Is A Fantasy
TTITLE8=Britt Rose - John Deere Tractor
TTITLE9=Frankie Raydell - Niemand Liebt Dich
TTITLE10=Swamp Cats - Cher Cantin
TTITLE11=Nark Merritt - Better Left Unsaid
TTITLE12=Songdogs - Queen Of Misfits
TTITLE13=Ulli Möhring - Let It Ride
TTITLE14=Travis Truitt - Day By Day
TTITLE15=Mandy Strobel - Paradise
TTITLE16=The New Prohibition Band - The River
TTITLE17=German New Faces - Thank you Fans, Thank you Bands
EXTD=
EXTT0=
EXTT1=
EXTT2=
EXTT3=
EXTT4=
EXTT5=
EXTT6=
EXTT7=
EXTT8=
EXTT9=
EXTT10=
EXTT11=
EXTT12=
EXTT13=
EXTT14=
EXTT15=
EXTT16=
EXTT17=
PLAYORDER=
